<?xml version="1.0" encoding="UTF-8" standalone="no"?>
<!DOCTYPE svg PUBLIC "-//W3C//DTD SVG 1.1//EN"
 "http://www.w3.org/Graphics/SVG/1.1/DTD/svg11.dtd">
<!-- Generated by graphviz version 2.47.3 (20210619.1520)
 -->
<!-- Pages: 1 -->
<svg width="284pt" height="92pt"
 viewBox="0.00 0.00 284.00 91.70" xmlns="http://www.w3.org/2000/svg" xmlns:xlink="http://www.w3.org/1999/xlink">
<g id="graph0" class="graph" transform="scale(1 1) rotate(0) translate(4 87.7)">
<polygon fill="white" stroke="transparent" points="-4,4 -4,-87.7 280,-87.7 280,4 -4,4"/>
<!-- &#45;1 -->
<g id="node1" class="node">
<title>&#45;1</title>
<polygon fill="lightgray" stroke="black" points="24,-83.7 0,-83.7 0,-65.7 24,-65.7 24,-83.7"/>
<text text-anchor="middle" x="12" y="-72.5" font-family="Times New Roman,serif" font-size="9.00">&#45;1</text>
</g>
<!-- 0 -->
<g id="node8" class="node">
<title>0</title>
<ellipse fill="lightblue" stroke="black" cx="102" cy="-14.85" rx="14.7" ry="14.7"/>
<text text-anchor="middle" x="102" y="-12.65" font-family="Times New Roman,serif" font-size="9.00">0</text>
</g>
<!-- &#45;1&#45;&gt;0 -->
<g id="edge1" class="edge">
<title>&#45;1&#45;&gt;0</title>
<path fill="none" stroke="green" stroke-width="0.47" d="M24.14,-65.9C38.77,-56.49 63.58,-40.55 81.26,-29.18"/>
<polygon fill="green" stroke="green" stroke-width="0.47" points="83.25,-32.06 89.77,-23.71 79.46,-26.18 83.25,-32.06"/>
</g>
<!-- 1 -->
<g id="node9" class="node">
<title>1</title>
<ellipse fill="lightblue" stroke="black" cx="150" cy="-14.85" rx="14.7" ry="14.7"/>
<text text-anchor="middle" x="150" y="-12.65" font-family="Times New Roman,serif" font-size="9.00">1</text>
</g>
<!-- &#45;1&#45;&gt;1 -->
<g id="edge2" class="edge">
<title>&#45;1&#45;&gt;1</title>
<path fill="none" stroke="red" stroke-width="0.39" d="M24.01,-69.12C52.31,-58.33 121.14,-32.02 126,-29.7 126.84,-29.3 127.68,-28.88 128.53,-28.45"/>
<polygon fill="red" stroke="red" stroke-width="0.39" points="130.39,-31.42 137.49,-23.56 127.04,-25.28 130.39,-31.42"/>
</g>
<!-- 2 -->
<g id="node10" class="node">
<title>2</title>
<ellipse fill="lightblue" stroke="black" cx="54" cy="-14.85" rx="14.7" ry="14.7"/>
<text text-anchor="middle" x="54" y="-12.65" font-family="Times New Roman,serif" font-size="9.00">2</text>
</g>
<!-- &#45;1&#45;&gt;2 -->
<g id="edge3" class="edge">
<title>&#45;1&#45;&gt;2</title>
<path fill="none" stroke="green" stroke-width="0.2" d="M17.84,-65.65C23.47,-57.89 32.23,-45.84 39.71,-35.53"/>
<polygon fill="green" stroke="green" stroke-width="0.2" points="42.56,-37.57 45.6,-27.42 36.89,-33.45 42.56,-37.57"/>
</g>
<!-- &#45;2 -->
<g id="node2" class="node">
<title>&#45;2</title>
<polygon fill="lightgray" stroke="black" points="108,-83.7 84,-83.7 84,-65.7 108,-65.7 108,-83.7"/>
<text text-anchor="middle" x="96" y="-72.5" font-family="Times New Roman,serif" font-size="9.00">&#45;2</text>
</g>
<!-- &#45;2&#45;&gt;0 -->
<g id="edge4" class="edge">
<title>&#45;2&#45;&gt;0</title>
<path fill="none" stroke="green" stroke-width="0.16" stroke-dasharray="1,5" d="M96.83,-65.65C97.52,-59.05 98.53,-49.33 99.47,-40.23"/>
<polygon fill="green" stroke="green" stroke-width="0.16" points="102.98,-40.36 100.53,-30.06 96.01,-39.64 102.98,-40.36"/>
</g>
<!-- &#45;2&#45;&gt;1 -->
<g id="edge5" class="edge">
<title>&#45;2&#45;&gt;1</title>
<path fill="none" stroke="green" stroke-width="0.16" d="M103.51,-65.65C111.18,-57.44 123.33,-44.42 133.29,-33.75"/>
<polygon fill="green" stroke="green" stroke-width="0.16" points="136.1,-35.86 140.37,-26.17 130.99,-31.09 136.1,-35.86"/>
</g>
<!-- &#45;2&#45;&gt;2 -->
<g id="edge6" class="edge">
<title>&#45;2&#45;&gt;2</title>
<path fill="none" stroke="green" stroke-width="0.3" d="M90.16,-65.65C84.53,-57.89 75.77,-45.84 68.29,-35.53"/>
<polygon fill="green" stroke="green" stroke-width="0.3" points="71.11,-33.45 62.4,-27.42 65.44,-37.57 71.11,-33.45"/>
</g>
<!-- 3 -->
<g id="node11" class="node">
<title>3</title>
<ellipse fill="lightblue" stroke="black" cx="198" cy="-14.85" rx="14.7" ry="14.7"/>
<text text-anchor="middle" x="198" y="-12.65" font-family="Times New Roman,serif" font-size="9.00">3</text>
</g>
<!-- &#45;2&#45;&gt;3 -->
<g id="edge7" class="edge">
<title>&#45;2&#45;&gt;3</title>
<path fill="none" stroke="red" stroke-width="0.68" d="M108.18,-66.88C123.55,-58.26 150.77,-42.95 174,-29.7 174.8,-29.24 175.62,-28.77 176.45,-28.3"/>
<polygon fill="red" stroke="red" stroke-width="0.68" points="178.38,-31.22 185.31,-23.2 174.9,-25.15 178.38,-31.22"/>
</g>
<!-- &#45;3 -->
<g id="node3" class="node">
<title>&#45;3</title>
<polygon fill="lightgray" stroke="black" points="150,-83.7 126,-83.7 126,-65.7 150,-65.7 150,-83.7"/>
<text text-anchor="middle" x="138" y="-72.5" font-family="Times New Roman,serif" font-size="9.00">&#45;3</text>
</g>
<!-- &#45;3&#45;&gt;0 -->
<g id="edge8" class="edge">
<title>&#45;3&#45;&gt;0</title>
<path fill="none" stroke="green" stroke-width="0.1" d="M132.99,-65.65C128.32,-58.14 121.14,-46.61 114.87,-36.53"/>
<polygon fill="green" stroke="green" stroke-width="0.1" points="117.72,-34.49 109.46,-27.84 111.78,-38.18 117.72,-34.49"/>
</g>
<!-- &#45;3&#45;&gt;1 -->
<g id="edge9" class="edge">
<title>&#45;3&#45;&gt;1</title>
<path fill="none" stroke="red" stroke-width="0.26" d="M139.67,-65.65C141.07,-58.89 143.15,-48.86 145.08,-39.57"/>
<polygon fill="red" stroke="red" stroke-width="0.26" points="148.54,-40.11 147.15,-29.6 141.69,-38.69 148.54,-40.11"/>
</g>
<!-- &#45;3&#45;&gt;2 -->
<g id="edge10" class="edge">
<title>&#45;3&#45;&gt;2</title>
<path fill="none" stroke="green" stroke-width="0.17" d="M126.32,-65.65C112.86,-56.38 90.49,-40.98 74.19,-29.75"/>
<polygon fill="green" stroke="green" stroke-width="0.17" points="76.07,-26.8 65.85,-24.01 72.1,-32.57 76.07,-26.8"/>
</g>
<!-- &#45;3&#45;&gt;3 -->
<g id="edge11" class="edge">
<title>&#45;3&#45;&gt;3</title>
<path fill="none" stroke="red" stroke-width="0.44" d="M146.34,-65.65C155.13,-57.18 169.24,-43.58 180.49,-32.73"/>
<polygon fill="red" stroke="red" stroke-width="0.44" points="182.95,-35.22 187.72,-25.76 178.09,-30.18 182.95,-35.22"/>
</g>
<!-- &#45;4 -->
<g id="node4" class="node">
<title>&#45;4</title>
<polygon fill="lightgray" stroke="black" points="276,-83.7 252,-83.7 252,-65.7 276,-65.7 276,-83.7"/>
<text text-anchor="middle" x="264" y="-72.5" font-family="Times New Roman,serif" font-size="9.00">&#45;4</text>
</g>
<!-- &#45;4&#45;&gt;0 -->
<g id="edge12" class="edge">
<title>&#45;4&#45;&gt;0</title>
<path fill="none" stroke="green" stroke-width="0.21" d="M251.61,-68.83C248.79,-67.76 245.8,-66.66 243,-65.7 191.55,-48 175.88,-51.43 126,-29.7 125.15,-29.33 124.29,-28.94 123.44,-28.53"/>
<polygon fill="green" stroke="green" stroke-width="0.21" points="124.9,-25.34 114.43,-23.73 121.61,-31.52 124.9,-25.34"/>
</g>
<!-- &#45;4&#45;&gt;1 -->
<g id="edge13" class="edge">
<title>&#45;4&#45;&gt;1</title>
<path fill="none" stroke="green" stroke-width="0.36" d="M251.93,-68.12C234.53,-60.01 201.48,-44.32 174,-29.7 173.18,-29.26 172.35,-28.82 171.52,-28.36"/>
<polygon fill="green" stroke="green" stroke-width="0.36" points="173.04,-25.2 162.61,-23.34 169.61,-31.3 173.04,-25.2"/>
</g>
<!-- &#45;4&#45;&gt;3 -->
<g id="edge14" class="edge">
<title>&#45;4&#45;&gt;3</title>
<path fill="none" stroke="red" stroke-width="0.42" d="M254.82,-65.65C244.94,-57 228.97,-42.99 216.47,-32.03"/>
<polygon fill="red" stroke="red" stroke-width="0.42" points="218.68,-29.32 208.85,-25.36 214.07,-34.58 218.68,-29.32"/>
</g>
<!-- &#45;5 -->
<g id="node5" class="node">
<title>&#45;5</title>
<polygon fill="lightgray" stroke="black" points="192,-83.7 168,-83.7 168,-65.7 192,-65.7 192,-83.7"/>
<text text-anchor="middle" x="180" y="-72.5" font-family="Times New Roman,serif" font-size="9.00">&#45;5</text>
</g>
<!-- &#45;5&#45;&gt;0 -->
<g id="edge15" class="edge">
<title>&#45;5&#45;&gt;0</title>
<path fill="none" stroke="red" stroke-width="0.66" d="M169.15,-65.65C156.91,-56.57 136.73,-41.61 121.68,-30.45"/>
<polygon fill="red" stroke="red" stroke-width="0.66" points="123.63,-27.53 113.51,-24.39 119.46,-33.16 123.63,-27.53"/>
</g>
<!-- &#45;5&#45;&gt;1 -->
<g id="edge16" class="edge">
<title>&#45;5&#45;&gt;1</title>
<path fill="none" stroke="green" stroke-width="0.54" d="M175.83,-65.65C172.02,-58.31 166.22,-47.13 161.08,-37.22"/>
<polygon fill="green" stroke="green" stroke-width="0.54" points="164.16,-35.54 156.44,-28.28 157.94,-38.77 164.16,-35.54"/>
</g>
<!-- &#45;5&#45;&gt;2 -->
<g id="edge17" class="edge">
<title>&#45;5&#45;&gt;2</title>
<path fill="none" stroke="red" stroke-width="0.23" d="M167.86,-68.99C148.53,-61.39 109.71,-45.62 78,-29.7 77.17,-29.28 76.33,-28.85 75.49,-28.41"/>
<polygon fill="red" stroke="red" stroke-width="0.23" points="77,-25.24 66.55,-23.46 73.61,-31.37 77,-25.24"/>
</g>
<!-- &#45;5&#45;&gt;3 -->
<g id="edge18" class="edge">
<title>&#45;5&#45;&gt;3</title>
<path fill="none" stroke="green" stroke-width="0.18" d="M182.5,-65.65C184.66,-58.72 187.88,-48.37 190.83,-38.89"/>
<polygon fill="green" stroke="green" stroke-width="0.18" points="194.23,-39.75 193.86,-29.16 187.55,-37.67 194.23,-39.75"/>
</g>
<!-- &#45;6 -->
<g id="node6" class="node">
<title>&#45;6</title>
<polygon fill="lightgray" stroke="black" points="66,-83.7 42,-83.7 42,-65.7 66,-65.7 66,-83.7"/>
<text text-anchor="middle" x="54" y="-72.5" font-family="Times New Roman,serif" font-size="9.00">&#45;6</text>
</g>
<!-- &#45;6&#45;&gt;0 -->
<g id="edge19" class="edge">
<title>&#45;6&#45;&gt;0</title>
<path fill="none" stroke="red" stroke-width="0.22" d="M60.67,-65.65C67.26,-57.72 77.57,-45.29 86.25,-34.83"/>
<polygon fill="red" stroke="red" stroke-width="0.22" points="89.06,-36.93 92.75,-26.99 83.67,-32.46 89.06,-36.93"/>
</g>
<!-- &#45;6&#45;&gt;1 -->
<g id="edge20" class="edge">
<title>&#45;6&#45;&gt;1</title>
<path fill="none" stroke="red" stroke-width="0.38" d="M66.16,-66.37C81.94,-56.86 109.73,-40.11 128.97,-28.52"/>
<polygon fill="red" stroke="red" stroke-width="0.38" points="130.88,-31.46 137.64,-23.3 127.27,-25.46 130.88,-31.46"/>
</g>
<!-- &#45;6&#45;&gt;2 -->
<g id="edge21" class="edge">
<title>&#45;6&#45;&gt;2</title>
<path fill="none" stroke="green" stroke-width="0.17" d="M54,-65.65C54,-59.05 54,-49.33 54,-40.23"/>
<polygon fill="green" stroke="green" stroke-width="0.17" points="57.5,-40.06 54,-30.06 50.5,-40.06 57.5,-40.06"/>
</g>
<!-- &#45;6&#45;&gt;3 -->
<g id="edge22" class="edge">
<title>&#45;6&#45;&gt;3</title>
<path fill="none" stroke="red" stroke-width="0.1" d="M66.43,-68.93C69.24,-67.86 72.22,-66.73 75,-65.7 118.88,-49.36 131.56,-49.47 174,-29.7 174.84,-29.31 175.69,-28.9 176.54,-28.47"/>
<polygon fill="red" stroke="red" stroke-width="0.1" points="178.39,-31.45 185.52,-23.6 175.06,-25.29 178.39,-31.45"/>
</g>
<!-- &#45;7 -->
<g id="node7" class="node">
<title>&#45;7</title>
<polygon fill="lightgray" stroke="black" points="234,-83.7 210,-83.7 210,-65.7 234,-65.7 234,-83.7"/>
<text text-anchor="middle" x="222" y="-72.5" font-family="Times New Roman,serif" font-size="9.00">&#45;7</text>
</g>
<!-- &#45;7&#45;&gt;0 -->
<g id="edge23" class="edge">
<title>&#45;7&#45;&gt;0</title>
<path fill="none" stroke="red" stroke-width="0.16" d="M209.7,-68.5C191.27,-60.61 155.49,-44.92 126,-29.7 125.18,-29.27 124.34,-28.83 123.5,-28.39"/>
<polygon fill="red" stroke="red" stroke-width="0.16" points="125.02,-25.22 114.58,-23.41 121.61,-31.34 125.02,-25.22"/>
</g>
<!-- &#45;7&#45;&gt;1 -->
<g id="edge24" class="edge">
<title>&#45;7&#45;&gt;1</title>
<path fill="none" stroke="red" stroke-width="0.29" d="M211.99,-65.65C200.98,-56.81 183.03,-42.39 169.27,-31.34"/>
<polygon fill="red" stroke="red" stroke-width="0.29" points="171.34,-28.5 161.35,-24.97 166.95,-33.96 171.34,-28.5"/>
</g>
<!-- &#45;7&#45;&gt;3 -->
<g id="edge25" class="edge">
<title>&#45;7&#45;&gt;3</title>
<path fill="none" stroke="green" stroke-width="0.16" d="M218.66,-65.65C215.72,-58.56 211.28,-47.87 207.28,-38.21"/>
<polygon fill="green" stroke="green" stroke-width="0.16" points="210.4,-36.61 203.34,-28.71 203.94,-39.29 210.4,-36.61"/>
</g>
</g>
</svg>
